<?xml version="1.0" encoding="utf-8"?>
<!-- Generator: Adobe Illustrator 25.0.0, SVG Export Plug-In . SVG Version: 6.00 Build 0)  -->
<svg version="1.1" id="Layer_1" xmlns="http://www.w3.org/2000/svg" xmlns:xlink="http://www.w3.org/1999/xlink" x="0px" y="0px"
	 viewBox="0 0 1000 1000" style="enable-background:new 0 0 1000 1000;" xml:space="preserve">
<style type="text/css">
	.st0{fill:#231F20;}
	.st1{fill:#30ED22;}
	.st2{fill:#FFFFFF;}
</style>
<g>
	<path class="st0" d="M500,912.5C272.6,912.5,87.5,727.4,87.5,500S272.6,87.5,500,87.5s412.5,185,412.5,412.5
		C912.5,727.4,727.4,912.5,500,912.5z"/>
	<path class="st1" d="M819.1,504.3c-8.7,0-15.8,7.1-15.8,15.8c0,8.7,7.1,15.8,15.8,15.8c8.7,0,15.8-7.1,15.8-15.8
		C834.8,511.3,827.8,504.3,819.1,504.3z M823.7,528.5c0-0.2-0.1-0.3-0.2-0.6c0-0.2,0-0.7-0.1-1.4l-0.2-2.9c0-1.1-0.5-1.9-1.3-2.3
		c-0.5-0.2-1.2-0.3-2.2-0.3h-5.4v7.6H812V511h8.1c1.3,0,2.4,0.2,3.3,0.6c1.7,0.7,2.5,2.2,2.5,4.2c0,1-0.2,1.9-0.7,2.6
		c-0.4,0.7-1,1.2-1.8,1.6c0.7,0.3,1.2,0.6,1.6,1.1c0.3,0.5,0.5,1.2,0.6,2.2l0,2.4c0,0.7,0,1.1,0.2,1.5c0.1,0.6,0.4,0.9,0.8,1.1
		L823.7,528.5z"/>
	<path class="st1" d="M749.2,343.2c-1.2-1.9-3.4-6.8-4-7.7c-0.5-0.7-1.3-0.6-1.8-0.2c-4.1,2.5-1,9.7,1,12.9c1.7,2.7,6,8.8,9.5,6.6
		c1.6-1,1.3-3.1,0.3-4.7C753.3,348.9,750.9,345.9,749.2,343.2z"/>
	<path class="st1" d="M585,821.4c-3.2,0.9-4.8,4.2-4.1,6.9c0.5,2.3,2.5,4.4,5.3,3.6c3.6-0.9,3-4.5,2.3-7.1
		C588.1,822.9,587.7,820.7,585,821.4z"/>
	<path class="st1" d="M822.2,513.3c-0.5-0.2-1.1-0.3-1.9-0.3h-5.8v6h5.5c1.1,0,2-0.2,2.7-0.7c0.6-0.5,1-1.3,1-2.4
		C823.5,514.6,823.1,513.8,822.2,513.3z"/>
	<path class="st2" d="M537.3,353.9c-16.5,0-29.8,13.5-29.8,30l0,1.3c0,2.6,0.5,5.1,1.3,7.4c3.8,12.2,15.2,21.1,28.7,21.1
		c16.5,0,29.8-13.5,29.8-30C567.2,367.2,553.8,353.8,537.3,353.9z"/>
	<path class="st1" d="M418.8,820.9c-3.2-0.8-6.2,1.4-6.8,4.2c-0.5,2.3,0.2,5,3,5.7c3.6,0.9,4.8-2.6,5.4-5.2
		C420.8,823.8,421.4,821.6,418.8,820.9z"/>
	<path class="st1" d="M500,109.8c-215.1,0-390.1,175-390.1,390.1c0,215.1,175,390.1,390.1,390.1s390.1-175,390.1-390.1
		C890.2,284.9,715.2,109.8,500,109.8z M743.6,270.9c4.8-4.2,23.1,13,23.8,13.7c2,2.3,0.5,3.6-0.9,4.9l-18.9,16.3
		c-8,6.9-1.3,8.8-4.9,11.8c-4.6,4-12.8-5.5-15.7-8.8c-11.1-12.8-8.9-15.6-7.2-17c2.4-2.1,5.2,0.9,8.1-0.1
		c3.2-1.1,13.1-9.4,14.9-12.4C744.5,276.6,740.5,273.5,743.6,270.9z M703.5,241.9c5.9-6.7,15.7-5.7,23.3,1c1.5,1.3,2.8,2.8,4.1,4.3
		c1.1,1.4,2.1,2.7,2.6,3.1c0.7,0.6,1.5,1,2.4,1.3c0.9,0.4,1.7,0.8,2.3,1.4c3.4,3,1.4,12.2-1,14.9c-1.6,1.8-4.5,1.7-6.4,0
		c-4.2-3.7-1.9-11.1-5.2-14c-1.4-1.1-3.6-1.3-4.7,0c-3.8,4.3,11.8,19.4,2.7,29.8c-5.5,6.3-16.1,4.8-23.8-1.9
		c-1.5-1.3-3.5-3.4-5.1-5.3c-1.7-1.8-3.2-3.4-3.6-3.8c-0.5-0.5-1-0.8-1.6-1.1c-0.5-0.3-1-0.6-1.5-1.1c-1.5-1.3-2.1-2.2-2.2-4.1
		c-0.2-3.5,1.4-9,3.6-11.5c1.5-1.8,3.4-2.6,5.6-0.7c3.2,2.8,0.4,12.1,4.5,15.7c1.5,1.3,3.5,1.9,4.8,0.4
		C708,266.2,693.9,253.1,703.5,241.9z M684.5,211.7c14.2,8.7,14.4,22.6,10.9,28.3c-3.1,5-6,4.2-8.7,2.5l-18.2-11.2
		c-0.9-0.6-2.1-1.7-2.9-0.3c-2.3,3.8,1.1,10.4,5.1,12.8c6.3,3.9,11.5,2.3,13.3,3.4c1.8,1.1,1.8,4.4,0.9,5.8
		c-3.6,5.9-18,2.9-25.6-1.8c-15.1-9.3-16.8-23.9-10.8-33.8C655.7,205.8,671.9,204,684.5,211.7z M564.4,204.8c2.1-6.1,7.1,3.2,11.7-9
		l10.8-29.1c3.2-8.6-5.2-6.8-3.4-12.3c1.4-3.9,6.9-2.6,10.2-1.5l30.3,10.4c25.9,8.9,29.3,26.4,24.1,41.6
		c-5.4,15.8-20.7,27.1-44.2,18.9c-4-1.4-7.3-2.6-10.1-3.8c-2.8-1.1-5.3-2-7.9-3c-2.6-0.9-5.4-1.7-8-2.6c-2.7-0.7-5.3-1.5-8-2.4
		C566.8,211,563.3,208.2,564.4,204.8z M496.8,178.2c-1.2,0-4.3,0.3-4.2-1.3c0.2-7.1-0.4-7.9,2.6-8c1.2,0,2.8-0.1,2.8-1.7
		c0-1.7-3.6-5.1-3.4-10.8c0.3-10.7,12.5-13.8,22.3-13.5c16.1,0.5,19.5,8.3,19.4,12.2c-0.1,3.8-3.6,6.8-7.7,6.7
		c-8.6-0.3-9.4-8.3-15-8.6c-1.9,0-3.4,1.4-3.5,3.1c-0.2,5.6,10,7.8,11.7,11.8c0.3,0.7,0.4,1,1.4,1c4.1,0.1,9.8-0.7,9.5,2l-0.7,6.5
		c-0.1,1.4-1.3,1.5-2.6,1.4c-5.8-0.2-6.8-0.3-6.9,5.6c0,2.5,0.1,5.6,0.7,8c1.6,5.4,8.7,2.8,8.5,8.3c-0.1,2.2-0.4,6.6-22.5,5.9
		c-4.7-0.1-17.4-0.6-17.2-6.9c0.2-5,7-2.4,7.5-7.9l1.1-9.6C500.9,179.7,500,178.3,496.8,178.2z M382.9,182.7c2.6-0.9,3.2,0.1,4,2.2
		l7.6,21.4c1.2,3.4,3.3,8.5,8.3,6.7c6.7-2.3,3-9.9,1.5-14c-1-2.8-2.2-6.4-3.6-9c-2.2-4-6.3-0.9-7.5-4.5c-1.8-5,16.6-12.4,20.1-13.6
		c3.4-1.2,5.4,0.1,6.4,3.1c0.9,2.7,1.7,5.4,2.6,8.1l6,17c1.8,5,6.1,0.9,7.5,5c0.1,0.4,0.2,0.8,0.1,1.3c0.6-2.6,4-3.5,4.5-6.3
		c0.5-2.3,0-7.4-0.3-9.9l-0.7-5.3c-1.2-8.7-6.6-3-7.3-8.4c-1-6.9,21.5-12.1,22.4-12.2c3.7-0.5,3.9,0.4,4.7,3.3
		c0.2,1,0.5,3.1,2.1,2.8c2.3-0.3,2.8-7.5,11.2-8.7c6.5-0.9,11.4,2.9,12.2,8.7c0.9,5.9-4.1,11.4-10.5,12.3c-6.3,0.9-8.8-3.9-11.3-3.6
		c-2.7,0.4-1.4,6.3-1.2,7.9c0.4,2.7,1.2,6.3,2.2,9.6c1.1,3.8,8.2,0.4,9,5.7c0.8,5.6-7.7,7.2-18.5,8.7c-4.5,0.6-17.7,2.7-18.6-3.5
		c0-0.5,0-0.8,0-1.2c-0.5,5.5-14.3,11.9-19,13.5c-7.2,2.5-4.2-4.2-7.9-2.9c-1,0.4-2.1,2.2-3.8,4.2c-1.8,2.1-4.3,4.4-8.4,5.8
		c-17.6,6.3-20.6-6.9-25.1-19.6c-4.5-12.9-9-5-10.9-10.5C358.8,191.5,382.1,182.9,382.9,182.7z M314.3,196.3
		c5.4-3.3,12.7-4.8,14-5.6c1.2-0.7,1.8-2.3,3.5-3.5c2.8-1.8,12.7,0,16.7,6.3c1.6,2.6,1.4,6.3-1.7,8.2c-5.6,3.5-14.2-3.1-22.9,2.3
		c-2.6,1.6-4.7,4.4-3,7.1c3.7,6,14.2-2.7,27.5-2.9c7.1-0.1,12.1,2.1,15.6,7.7c5.5,8.9,3.7,23.9-15.7,36.1c-5.5,3.4-15.8,8-22,8.6
		c-5.3,0.5-12.2-6.4-14.6-10.3c-1.3-2.1-1.5-4.7,1-6.3c5.9-3.7,12.4,9,27.8-0.6c1.8-1.1,5.9-4.8,4.1-7.7c-3.4-5.4-14,3-27.5,2.1
		c-6.7-0.5-12.9-3-16.3-8.5C295.8,221.3,298.1,206.4,314.3,196.3z M229.4,270.2c6.1-7.5,13.4-9.5,15-11.5c1.4-1.7,1.3-2.5,2.3-3.8
		c2.6-3.2,10.4-3.8,18,2.6c3.9,3.2,5.1,8.6,1.5,13c-6.4,7.9-17.1-4.1-28.1,9.4c-4.8,5.9-1.8,12.4,2,15.5c10.3,8.4,23.9,9.5,32.6-1.1
		c7.9-9.7,4.3-15,6.3-17.4c1.8-2.2,5-1.4,6.8,0c3,2.5,6.6,11.2,3.4,15c-2.1,2.6-2.4,11.2-9.8,20.2c-13.1,16-35.3,19.7-49.2,8.3
		C216,308.7,217.1,285.2,229.4,270.2z M216.4,449.6c-0.8,5-3.6,23.1-10.4,22.1c-4.7-0.8-1.8-6.5-4.9-9c-1.7-1.3-6.9-2.5-9.1-3
		l-19.4-3.9c-9.2-1.9-9.5,0.1-9.7,1.5c-0.7,4.4,9.3,8.2,8.1,16.1c-0.6,3.8-4.2,5.5-7.3,5c-7.5-1.2-16.2-9.8-15.3-15.3
		c0.1-0.7,0.5-1.7,1.2-3.5c0.6-1.8,1.4-4.4,2-8.3l3.9-23.9c0.7-4.2,0.6-6.2,0.6-7.7c-0.1-1.4-0.3-2.3,0-4.1c0.6-3.8,8.7-10.5,18.2-9
		c4.4,0.7,6.9,3.7,6.1,8.7c-1.4,8.5-11.8,6.7-12.6,11.6c-0.6,3.8,4.2,4.2,4.9,4.3l27.1,4.4c10.5,1.7,6.9-8.1,13.1-7.1
		C215.7,429,219.3,431.5,216.4,449.6z M236.6,381.5c-10.6,23.6-27.9,31.6-39.5,26.4c-10.3-4.6-7.5-15.2-9.1-16
		c-1-0.4-6.3,1-10.1-0.6c-9-4.1-10.4-18-5.4-29.2c2.3-5,9-15,15-12.3c2.3,1,3.6,4.6,2.4,7.2c-1.2,2.7-5.5,3.2-7.5,7.6
		c-1.5,3.4,0.2,6.7,3.2,8c8,3.6,7-8.6,12.6-6.1c9.7,4.3-1.5,11.8,5.9,15.2c8.2,3.7,20.7-0.9,24.8-10.2c2.7-6,2.5-15.3-3.8-18.1
		c-3-1.3-6.2,0.6-7.7,3.8c-2.5,5.6,3.4,8.7,2.2,11.6c-1.3,2.8-5.6,2.3-7.6,1.4c-16.5-7.3-4.1-31.3-10.8-34.3
		c-1.1-0.5-2.6-0.1-3.2,1.1c-0.4,0.8,0,1.5-0.5,2.6c-0.5,1-1.7,1.5-2.6,1.1c-4.5-2-3-11.1-1.3-14.9c3.1-6.8,9.9-11.9,16.6-8.8
		c10.4,4.6,7.2,19.3,9.6,20.3c2.4,1,5.7-5.5,12.8-2.4C241.7,338.9,247.6,357,236.6,381.5z M377.5,820.1c1.3,1.8,2.3,2.8,1.3,4.8
		c-0.9,1.9-3.2,5.9-20.5-2.8c-3.9-1.9-15.1-7.7-12.4-13.1c2.7-6.3,5.9,3.7,14-12.5c2.2-4.3,1-4.7-3.4-6.9
		c-12.3-6.2-11.3-5.3-14.9,1.9c-5.5,10.9,2.2,9.3-0.5,14.5c-2.8,5.6-15.8-0.5-20-2.7c-4.1-2.1-16.1-8.5-13.3-14
		c0.9-1.7,2.7-2.1,4.5-1.9c3.8,0.2,4.8,1,13.2-15.7c10.7-21.2,9.5-19.7,7-22.9c-1-1.3-2.2-2.8-1.4-4.4c3.1-6.2,18.1,0.6,23,3.1
		c3.6,1.8,13.7,7.3,11.3,12.2c-1.3,2.4-3.2,2.6-5.8,2.7c-2.7,0-3.8,0.7-7.3,7.8c-2.3,4.5,0.3,5,4.5,7.2l4.5,2.2
		c5.8,2.9,6,2.1,7.3-0.5c4.4-8.7,3.2-10,2.3-11.2c-1.3-1.7-2.4-3.2-1.4-5.3c0.7-1.5,2.7-6.2,20.2,2.6c4.1,2.1,15.8,8,13,13.6
		c-0.9,1.8-2.5,2.5-4.6,2.4c-3.2-0.3-4-1-10.4,11.7l-10.4,20.7C375.9,816.3,375.7,817.7,377.5,820.1z M445.3,837.7
		c-1.2,5-10,8.5-17,6.8c-7.6-1.9-6.6-6.3-9-6.9c-1.1-0.3-2.7,0.5-5,1c-2.4,0.6-5.5,1-9.9,0c-7.9-1.9-14.9-7.7-12.8-16.3
		c1.5-6.2,9.9-12.2,26.7-8c2.9,0.7,4.2,1.2,5-1.9c0.7-2.8,2.1-8.9-2.3-9.9c-5.8-1.4-8.6,7.8-17.1,5.7c-3.1-0.8-4.9-3.4-4.2-6.1
		c1.8-7.4,19.1-8.1,28.2-5.9c5.4,1.4,19.9,6.9,16.7,20l-2.2,8.7C438.7,839.9,446.5,832.9,445.3,837.7z M544.4,818.5l-12.6,22.5
		c-1.7,2.9-6,10.6-10.4,10.6c-3.8,0-8.5-7.2-10.3-9.8l-5-7.3c-0.7-1-1.8-3-3.2-3c-2.1,0-3.5,2.6-4.3,4.1l-7.2,11.3
		c-1.4,2.1-3.1,4.7-6.1,4.7c-3.6,0-5.8-3.6-7.5-6l-18.7-27.6c-3.2-4.7-8-1.9-8-6.5c0-5.7,15-6.2,19.6-6.2c3.8,0,15.8,0,15.8,5.4
		c0,2.1-1.9,2.8-1.9,4c0,1.5,4.5,9.5,7,9.5c1.8,0,4.5-4.6,4.5-5.9c0-4.3-6.1-4.3-6.1-7.6c0-1.8,0.5-5.4,19.8-5.4
		c3.7,0,14.3-0.2,14.3,4.7c0,3.2-3.2,3.5-3.2,5.5c0,1.8,3.8,8.8,5.9,8.8c3,0,6.7-8.1,6.7-8.8c0-2.3-2.7-2.7-2.7-5.7
		c0-4.5,8.7-4.6,12-4.6c3.4,0,12,0,12,4.5C554.8,814.5,548.8,810.9,544.4,818.5z M604.5,837.6c-7.6,1.9-8.9-2.5-11.2-1.9
		c-1.1,0.3-2.1,1.8-4,3.3c-1.8,1.7-4.4,3.5-8.8,4.6c-7.9,2-16.8,0.2-19-8.4c-1.6-6.2,3-15.4,19.8-19.7c3-0.7,4.3-0.9,3.5-4.1
		c-0.7-2.8-2.3-8.8-6.7-7.7c-5.7,1.4-3.9,11-12.4,13.1c-3,0.8-5.9-0.6-6.6-3.4c-1.8-7.3,13.1-16.2,22.1-18.5
		c5.4-1.4,20.8-3.2,24.1,9.8l2.2,8.7c3.9,15.3,7.5,5.5,8.7,10.2C617.5,828.5,611.5,835.8,604.5,837.6z M620.4,763.8
		c3.6-1.5,9.2-2.7,10.9,1.4c2.7,6.4-8.9,13.3-14,15.5c-3.8,1.6-8.6,1.8-10.3-2.3C604.8,773,615.8,765.8,620.4,763.8z M644.2,822.8
		c-15.6,6.6-17.6,3.6-18.5,1.7c-1.3-3,2.4-4.7,2.4-7.7c0-3.4-5-15.4-7.2-18c-2-2.5-6.3,0.3-7.8-3.4c-2.5-5.9,19.5-18.1,20.3-18.5
		c2.7-1.1,3.6,0.7,4.4,2.4l9.7,23c4.1,9.7,8,3.9,9.8,8.3C659.8,816.3,648.3,821.1,644.2,822.8z M652.3,747.7
		c3.4-1.9,8.9-3.8,11.1,0.1c3.5,6-7.2,14.3-12.1,17.1c-3.6,2.1-8.3,2.8-10.4-1C637.9,758.8,648,750.3,652.3,747.7z M683.1,803.5
		c-14.7,8.5-17,5.8-18.1,3.9c-1.6-2.8,1.8-5,1.4-7.9c-0.5-3.4-6.7-14.7-9.3-17c-2.3-2.3-6.2,1.1-8.2-2.4c-3.2-5.5,17.2-20.3,18-20.7
		c2.6-1.5,3.6,0.3,4.6,1.9l12.4,21.6c5.2,9.2,8.4,3,10.7,7.1C697.7,795.1,686.9,801.3,683.1,803.5z M502.1,758.5
		c-142.5,0.6-258.4-114.4-259.1-256.8s114.4-258.4,256.8-259c142.4-0.6,258.4,114.3,259,256.8C759.6,641.9,644.6,757.9,502.1,758.5z
		 M819.1,538.5c-10.2,0-18.5-8.3-18.5-18.5c0-10.3,8.3-18.5,18.5-18.5c10.2,0,18.5,8.3,18.5,18.5
		C837.6,530.3,829.3,538.5,819.1,538.5z M839.8,443.4c0.3,1.9,0.4,4.1,0.4,5.9c-0.1,1.8-0.1,3.4,0,4.1c0.2,1,0.5,1.7,1,2.5
		c0.4,0.9,0.8,1.7,0.9,2.6c0.7,4.5-6.7,10.3-10.3,10.8c-2.4,0.4-4.5-1.6-4.9-4.1c-0.9-5.5,5.6-9.8,4.9-14c-0.3-1.8-1.9-3.3-3.6-3
		c-5.6,0.9-3.3,22.5-17,24.6c-8.3,1.4-15.5-6.6-17.1-16.7c-0.3-1.9-0.5-4.8-0.5-7.3c-0.1-2.4-0.2-4.6-0.3-5.2
		c-0.1-0.7-0.3-1.3-0.5-1.9c-0.2-0.6-0.4-1.1-0.5-1.8c-0.3-1.9-0.2-3,1-4.5c2.1-2.8,6.8-6,10.1-6.6c2.3-0.4,4.3,0.2,4.7,3
		c0.7,4.3-7.4,9.6-6.6,15c0.3,1.9,1.5,3.6,3.5,3.4c5.2-0.9,2.8-20,17.3-22.3C831.4,426.3,838.2,433.4,839.8,443.4z M791.6,318.8
		c2.7,4.3,4.8,10.9,6.6,13.8c4,6.3,9.9,7,10.8,8.3c1.2,1.9-0.6,4.2-2,5.1c-4.3,2.7-10.2-0.1-11.1,0.4c-0.8,0.5-1.4,1.3-2.2,1.7
		c-10.2,6.4-21.9-4.5-27.6-13.7c-0.9-1.4-1.5-3-2.5-4.5c-0.9-1.4-2.2-1.8-3.5-1c-2.3,1.5-0.5,5.4,0.7,7.3c1.6,2.6,9,11.5,11,14.8
		c4.3,6.9,3.8,12.4,1.1,15.8c0.3-0.2,0.5-0.4,0.8-0.5c4.1-1.5,2,4.1,10.3,1.4l12.7-4.2c6.3-2.1,2.2-7,6.7-8.6
		c4.5-1.7,16.4,18.1,17.1,19.9c0.7,2.1-0.4,3.9-2.1,4.5c-0.5,0.2-1,0.3-1.5,0.5c-1,0.4-2,1.3-1.5,2.7c0.5,1.5,2.6,1.7,5,2.8
		c2.4,1.2,5.1,3.4,7.1,8.6c7,19.1-11.3,22.1-23.7,27.7c-6.4,2.9-3.6,6.1-7.2,7.5c-1.5,0.5-4.9,2.2-11.3-15.2
		c-1.3-3.3-4.6-12.1,0-13.9c3.1-1.1,2.7,2.5,8.4,0.9c6.1-1.7,20.5-4.1,17.3-12.7c-2.2-5.9-7.7-3.2-11.6-1.8l-6.4,2.3
		c-8.1,3-5.6,5.6-8.8,6.8c-5.2,1.9-9.5-10.4-10.9-14.2c-1.1-3-3.5-9.8-1.7-13.2c-0.4,0.4-0.8,0.7-1.3,1c-6.8,4.3-20.5,2.8-33.2-17.7
		c-9.6-15.4-8-24.6-3.1-27.6c4.5-2.7,7.3,1.8,8.5,1.1c1-0.6,0.3-6.4,3.6-8.5c5.4-3.4,11.2,2.4,12.2,1.7c0.9-0.6,0.9-8.4,6.5-11.9
		C774.3,300.5,786.4,310.4,791.6,318.8z M777.9,278.9c-5.3,4.5-15.4-4.4-19.1-8.7c-2.7-3.1-4.3-7.6-1-10.4c4.5-3.9,14.8,4.4,18,8.2
		C778.4,271,781.2,276,777.9,278.9z"/>
	<path class="st2" d="M501.1,500.7c-63.9-16.8-102.2-82.5-85.3-146.3c16.8-63.9,82.5-102.2,146.3-85.3
		c-127.9-33.7-259,42.7-292.6,170.7c-33.7,128,42.7,259,170.7,292.6c63.9,16.8,129.5-21.4,146.3-85.3
		C603.2,583.1,565,517.5,501.1,500.7z M467.1,651.1c-16.5,0-29.9-13.2-30-29.8c0-16.5,13.2-30,29.8-30c5.6,0,10.8,1.5,15.3,4.1
		c2.2,1.2,4.2,2.7,5.9,4.6c5.4,5.4,8.8,12.8,8.8,21.1C496.9,637.6,483.6,651,467.1,651.1z"/>
	<path class="st1" d="M675.3,225.5c2.3,1.4,4.7,3.5,6.3,0.7c1.7-2.8,1.2-6-1.9-7.9c-2.7-1.7-6.6-0.5-8.1,1.9
		C669.9,223,673.1,224.2,675.3,225.5z"/>
	<path class="st1" d="M602.3,213.4c11.7,4.1,17.5-6.2,20.4-14.6c6.8-19.8-0.3-25.7-7.5-28.2c-3.9-1.4-4.7,0-5.8,3.2l-10.9,31.6
		C597.1,209.6,597.2,211.7,602.3,213.4z"/>
	<path class="st1" d="M781.1,333.6c3.1-1.9,8.2-6.2,5.4-10.9c-2.1-3.2-5.8-2.9-8.4-1.3c-2.9,1.8-8.7,6.6-6,10.8
		C774.3,336,778,335.4,781.1,333.6z"/>
</g>
</svg>
